<svg width="620" height="329" viewBox="0 0 620 329" fill="none" xmlns="http://www.w3.org/2000/svg">
<path d="M583.138 328.65L583.684 327.64C576.368 323.677 567.263 318.746 562.507 310.654C557.819 302.676 557.714 291.843 562.232 282.382C566.078 274.33 573.142 267.117 582.661 261.521C584.538 260.417 586.509 259.371 588.415 258.359C593.022 255.914 597.786 253.385 601.715 249.797C607.125 244.856 611.219 236.564 608.168 229.178C607.164 226.821 605.521 224.792 603.424 223.323C601.327 221.854 598.861 221.003 596.306 220.867L596.241 222.014C598.582 222.139 600.842 222.918 602.763 224.263C604.684 225.608 606.19 227.466 607.111 229.625C609.946 236.489 606.056 244.278 600.942 248.949C597.121 252.438 592.422 254.932 587.878 257.344C585.961 258.361 583.979 259.413 582.08 260.53C572.363 266.242 565.142 273.627 561.197 281.886C556.516 291.687 556.639 302.934 561.518 311.236C566.436 319.604 575.697 324.62 583.138 328.65Z" fill="#F1F1F1"/>
<path d="M589.035 226.923C594.579 226.923 599.074 224.736 599.074 222.04C599.074 219.343 594.579 217.156 589.035 217.156C583.491 217.156 578.996 219.343 578.996 222.04C578.996 224.736 583.491 226.923 589.035 226.923Z" fill="#F1F1F1"/>
<path d="M581.004 259.094C586.548 259.094 591.043 256.908 591.043 254.211C591.043 251.514 586.548 249.328 581.004 249.328C575.46 249.328 570.965 251.514 570.965 254.211C570.965 256.908 575.46 259.094 581.004 259.094Z" fill="#F1F1F1"/>
<path d="M599.361 264.265C604.905 264.265 609.399 262.078 609.399 259.382C609.399 256.685 604.905 254.498 599.361 254.498C593.816 254.498 589.322 256.685 589.322 259.382C589.322 262.078 593.816 264.265 599.361 264.265Z" fill="#F1F1F1"/>
<path d="M570.678 291.266C576.222 291.266 580.717 289.08 580.717 286.383C580.717 283.686 576.222 281.5 570.678 281.5C565.134 281.5 560.639 283.686 560.639 286.383C560.639 289.08 565.134 291.266 570.678 291.266Z" fill="#F1F1F1"/>
<path d="M550.601 291.266C556.145 291.266 560.639 289.08 560.639 286.383C560.639 283.686 556.145 281.5 550.601 281.5C545.056 281.5 540.562 283.686 540.562 286.383C540.562 289.08 545.056 291.266 550.601 291.266Z" fill="#F1F1F1"/>
<path d="M460.876 200.19C461.544 200.116 462.186 199.897 462.76 199.548C463.333 199.199 463.823 198.728 464.195 198.168C464.566 197.609 464.811 196.975 464.912 196.31C465.013 195.646 464.967 194.967 464.777 194.323L478.051 184.828L470.14 181.777L458.748 191.262C457.688 191.652 456.808 192.419 456.274 193.416C455.74 194.413 455.59 195.572 455.852 196.672C456.115 197.773 456.771 198.739 457.697 199.387C458.623 200.036 459.754 200.321 460.876 200.19V200.19Z" fill="#FFB7B7"/>
<path d="M468.246 193.936L463.842 186.405L463.936 186.298L481.702 166.042L495.496 142.483L507.474 144.012L507.651 147.638L507.615 147.692L488.585 176.342L488.564 176.359L468.246 193.936Z" fill="#3F3D56"/>
<path d="M464.537 199.914L440.737 213.403L423.321 182.584L447.12 169.094L464.537 199.914Z" fill="#E5E5E5"/>
<path d="M446.462 180.824L433.7 188.058L434.941 190.254L447.703 183.02L446.462 180.824Z" fill="#6C63FF"/>
<path d="M449.689 186.534L436.927 193.767L438.168 195.963L450.93 188.73L449.689 186.534Z" fill="#6C63FF"/>
<path d="M452.916 192.244L440.154 199.477L441.395 201.673L454.157 194.44L452.916 192.244Z" fill="#6C63FF"/>
<path d="M526.945 321.385H520.171L516.948 295.219L526.946 295.219L526.945 321.385Z" fill="#FFB7B7"/>
<path d="M528.673 327.962L506.83 327.961V327.684C506.83 325.426 507.726 323.261 509.321 321.664C510.915 320.067 513.077 319.17 515.332 319.17H515.332L528.673 319.171L528.673 327.962Z" fill="#2F2E41"/>
<path d="M468.645 321.164L462.057 319.588L464.99 293.387L474.714 295.713L468.645 321.164Z" fill="#FFB7B7"/>
<path d="M468.801 327.962L447.556 322.881L447.62 322.612C448.144 320.416 449.517 318.518 451.438 317.336C453.359 316.153 455.671 315.784 457.864 316.308L457.864 316.308L470.84 319.411L468.801 327.962Z" fill="#2F2E41"/>
<path d="M494.972 130.52V119.101C494.971 117.09 495.365 115.1 496.133 113.242C496.9 111.385 498.025 109.697 499.444 108.275C500.863 106.853 502.548 105.725 504.402 104.955C506.256 104.186 508.244 103.79 510.251 103.79C512.259 103.79 514.246 104.186 516.101 104.955C517.955 105.725 519.64 106.853 521.059 108.275C522.478 109.697 523.603 111.385 524.37 113.242C525.138 115.1 525.532 117.09 525.531 119.101V130.52C525.53 131.065 525.314 131.587 524.929 131.973C524.544 132.358 524.022 132.575 523.478 132.575H497.025C496.48 132.575 495.959 132.358 495.574 131.973C495.189 131.587 494.973 131.065 494.972 130.52V130.52Z" fill="#2F2E41"/>
<path d="M506.481 132.402C512.667 132.402 517.683 127.379 517.683 121.183C517.683 114.987 512.667 109.964 506.481 109.964C500.294 109.964 495.278 114.987 495.278 121.183C495.278 127.379 500.294 132.402 506.481 132.402Z" fill="#FFB7B7"/>
<path d="M491.357 120.014C491.361 116.805 492.636 113.728 494.901 111.459C497.167 109.19 500.24 107.914 503.444 107.91H505.725C508.929 107.914 512.001 109.19 514.267 111.459C516.533 113.728 517.807 116.805 517.811 120.014V120.243H512.992L511.348 115.633L511.019 120.243H508.528L507.699 117.917L507.533 120.243H491.357V120.014Z" fill="#2F2E41"/>
<path d="M513.015 180.395L484.492 179.307L482.898 160.62C481.668 157.199 481.648 154.262 482.839 151.891C483.863 149.943 485.583 148.454 487.655 147.722L493.897 140.173C494.7 139.202 495.708 138.423 496.849 137.89C497.989 137.358 499.234 137.086 500.492 137.094L516.708 137.205C517.099 136.969 519.469 135.763 524.145 137.793C529.217 139.995 528.039 147.642 528.027 147.719L528.015 147.791L527.959 147.838L517.173 156.935L513.015 180.395Z" fill="#3F3D56"/>
<path d="M484.719 177.299L471.228 201.934L460.999 314.007L472.556 317.542L493.013 229.871L516.754 315.054L530.607 315.402L521.175 217.1L512.932 179.04L484.719 177.299Z" fill="#2F2E41"/>
<path d="M520.764 217.18C521.264 216.731 521.659 216.178 521.922 215.56C522.184 214.941 522.309 214.273 522.286 213.601C522.263 212.93 522.093 212.271 521.788 211.672C521.484 211.074 521.052 210.549 520.523 210.135L525.79 194.675L517.586 196.809L513.842 211.164C513.207 212.1 512.937 213.237 513.083 214.359C513.229 215.48 513.781 216.51 514.635 217.251C515.488 217.993 516.583 218.395 517.713 218.382C518.843 218.369 519.928 217.941 520.764 217.18Z" fill="#FFB7B7"/>
<path d="M523.117 207.798L515.157 204.245L517.832 177.275L515.343 150.079L525.969 144.334L528.222 147.178L528.224 147.243L529.417 181.632L529.411 181.659L523.117 207.798Z" fill="#3F3D56"/>
<path d="M343.768 257.332H58V132H343.768L343.768 257.332Z" fill="white"/>
<path d="M343.768 257.332H58V132H343.768L343.768 257.332ZM60.7644 254.564H341.004V134.768H60.7644V254.564Z" fill="#E5E5E5"/>
<path d="M201.001 232.905L151.938 196.101L103.545 232.402L102.438 230.921L151.938 193.79L200.767 230.418L249.291 177.239L249.486 177.16L298.432 157.41L299.122 159.126L250.371 178.797L201.001 232.905Z" fill="#3F3D56"/>
<path d="M102.991 237.211C106.052 237.211 108.532 234.726 108.532 231.661C108.532 228.597 106.052 226.112 102.991 226.112C99.931 226.112 97.4502 228.597 97.4502 231.661C97.4502 234.726 99.931 237.211 102.991 237.211Z" fill="#6C63FF"/>
<path d="M151.938 201.14C154.998 201.14 157.479 198.656 157.479 195.591C157.479 192.526 154.998 190.042 151.938 190.042C148.877 190.042 146.396 192.526 146.396 195.591C146.396 198.656 148.877 201.14 151.938 201.14Z" fill="#6C63FF"/>
<path d="M200.884 237.211C203.944 237.211 206.425 234.726 206.425 231.661C206.425 228.597 203.944 226.112 200.884 226.112C197.824 226.112 195.343 228.597 195.343 231.661C195.343 234.726 197.824 237.211 200.884 237.211Z" fill="#6C63FF"/>
<path d="M249.831 183.568C252.891 183.568 255.372 181.083 255.372 178.018C255.372 174.953 252.891 172.469 249.831 172.469C246.77 172.469 244.29 174.953 244.29 178.018C244.29 181.083 246.77 183.568 249.831 183.568Z" fill="#6C63FF"/>
<path d="M298.777 163.22C301.837 163.22 304.318 160.736 304.318 157.671C304.318 154.606 301.837 152.122 298.777 152.122C295.717 152.122 293.236 154.606 293.236 157.671C293.236 160.736 295.717 163.22 298.777 163.22Z" fill="#6C63FF"/>
<path d="M619.426 329H400.867C400.715 329 400.569 328.939 400.462 328.832C400.354 328.724 400.294 328.578 400.294 328.426C400.294 328.273 400.354 328.127 400.462 328.019C400.569 327.912 400.715 327.851 400.867 327.851H619.426C619.578 327.851 619.724 327.912 619.832 328.019C619.939 328.127 620 328.273 620 328.426C620 328.578 619.939 328.724 619.832 328.832C619.724 328.939 619.578 329 619.426 329Z" fill="#CBCBCB"/>
</svg>
