<svg width="415" height="214" viewBox="0 0 415 214" fill="none" xmlns="http://www.w3.org/2000/svg">
<path d="M207.5 191.278C322.099 191.278 415 188.684 415 185.485C415 182.286 322.099 179.693 207.5 179.693C92.9009 179.693 0 182.286 0 185.485C0 188.684 92.9009 191.278 207.5 191.278Z" fill="#E6E6E6"/>
<path d="M318.083 122.718C317.821 122.722 317.559 122.725 317.293 122.725C317.028 122.725 316.766 122.722 316.504 122.718C302.614 122.403 292.546 113.742 295.109 104.654L301.357 82.4853L302.937 76.8759L330.932 77.3522L332.633 82.8399L339.331 104.439C342.166 113.577 332.099 122.403 318.083 122.718Z" fill="#3F3D56"/>
<path opacity="0.2" d="M332.633 82.8399C327.86 85.563 322.445 86.9658 316.947 86.9035C311.449 86.8411 306.068 85.3159 301.357 82.4853L302.937 76.8759L330.932 77.3522L332.633 82.8399Z" fill="black"/>
<path d="M331.452 105.39C332.661 100.892 336.636 94.4028 347.783 86.5791C367.223 72.9325 355.626 62.7002 355.123 62.2715C354.069 61.3722 354.225 60.3625 355.485 60.0175C356.218 59.8714 356.973 59.8832 357.7 60.0521C358.427 60.2211 359.11 60.5432 359.702 60.997C360.332 61.5166 374.854 73.893 352.917 89.2898C333.174 103.148 337.372 112.195 337.42 112.282C337.949 113.249 337.101 114.024 335.524 114.013C333.946 114.003 332.238 113.211 331.707 112.244C331.596 112.04 330.325 109.577 331.452 105.39Z" fill="#3F3D56"/>
<path d="M304.372 125.949C303.948 125.949 303.528 125.866 303.136 125.704C302.744 125.542 302.388 125.304 302.088 125.005C301.788 124.706 301.55 124.35 301.388 123.959C301.226 123.568 301.142 123.149 301.142 122.726V108.756C301.142 107.901 301.482 107.081 302.088 106.476C302.694 105.872 303.516 105.532 304.372 105.532C305.229 105.532 306.051 105.872 306.656 106.476C307.262 107.081 307.602 107.901 307.602 108.756V122.726C307.602 123.149 307.519 123.568 307.357 123.959C307.194 124.35 306.956 124.706 306.656 125.005C306.356 125.304 306 125.542 305.608 125.704C305.216 125.866 304.796 125.949 304.372 125.949Z" fill="#3F3D56"/>
<path d="M307.204 92.7843C307.027 93.1689 306.776 93.5149 306.464 93.8025C306.153 94.0901 305.788 94.3137 305.39 94.4606C304.992 94.6074 304.569 94.6746 304.146 94.6583C303.722 94.642 303.305 94.5425 302.92 94.3655L290.203 88.5266C289.426 88.1686 288.823 87.5173 288.526 86.7158C288.23 85.9142 288.264 85.028 288.622 84.2518C288.98 83.4756 289.632 82.8729 290.435 82.5762C291.238 82.2794 292.126 82.3129 292.904 82.6692L305.62 88.5081C306.005 88.6851 306.352 88.9361 306.64 89.2467C306.929 89.5574 307.153 89.9216 307.3 90.3187C307.447 90.7158 307.514 91.1379 307.498 91.561C307.481 91.984 307.382 92.3997 307.204 92.7843Z" fill="#3F3D56"/>
<path d="M327.382 92.7843C327.559 93.1689 327.811 93.5149 328.122 93.8025C328.433 94.0901 328.798 94.3138 329.196 94.4606C329.594 94.6074 330.017 94.6746 330.441 94.6583C330.865 94.642 331.281 94.5425 331.667 94.3656L344.383 88.5266C345.161 88.1692 345.766 87.5179 346.063 86.716C346.36 85.9141 346.326 85.0272 345.967 84.2504C345.609 83.4737 344.957 82.8707 344.153 82.5742C343.35 82.2777 342.461 82.3118 341.683 82.6692L328.966 88.5082C328.581 88.6851 328.234 88.9361 327.946 89.2467C327.658 89.5574 327.434 89.9217 327.287 90.3188C327.14 90.7158 327.072 91.1379 327.089 91.561C327.105 91.984 327.205 92.3997 327.382 92.7843Z" fill="#3F3D56"/>
<path d="M330.214 125.949C330.638 125.949 331.058 125.866 331.45 125.704C331.842 125.542 332.198 125.304 332.498 125.005C332.798 124.706 333.036 124.35 333.199 123.959C333.361 123.568 333.444 123.149 333.444 122.726V108.756C333.444 107.901 333.104 107.081 332.498 106.476C331.893 105.872 331.071 105.532 330.214 105.532C329.357 105.532 328.536 105.872 327.93 106.476C327.324 107.081 326.984 107.901 326.984 108.756V122.726C326.984 123.149 327.067 123.568 327.23 123.959C327.392 124.35 327.63 124.706 327.93 125.005C328.23 125.304 328.586 125.542 328.978 125.704C329.37 125.866 329.79 125.949 330.214 125.949Z" fill="#3F3D56"/>
<path d="M343.714 35.5089C343.993 35.158 344.194 34.7521 344.305 34.3178C344.415 33.8835 344.432 33.4308 344.355 32.9895L342.597 22.6677L340.839 12.346C340.744 11.7887 340.504 11.2661 340.142 10.8308C339.781 10.3956 339.311 10.0629 338.78 9.8663C338.249 9.66969 337.675 9.61606 337.117 9.7108C336.558 9.80553 336.035 10.0453 335.599 10.406L327.521 17.0864L322.654 21.111C319.409 20.5351 316.091 20.4851 312.83 20.9632L308.142 17.0864L300.064 10.406C299.628 10.0453 299.105 9.80554 298.546 9.7108C297.988 9.61607 297.414 9.6697 296.883 9.86631C296.352 10.0629 295.882 10.3956 295.521 10.8308C295.16 11.2661 294.919 11.7887 294.824 12.346L293.066 22.6677L291.308 32.9895C291.214 33.5319 291.263 34.0894 291.449 34.6077C288.436 39.2173 286.716 44.5483 286.467 50.0463C286.218 55.5443 287.45 61.0084 290.035 65.8702C292.619 70.732 296.462 74.8139 301.162 77.6913C305.863 80.5687 311.251 82.1365 316.765 82.2316C322.278 82.3267 327.717 80.9456 332.515 78.232C337.312 75.5184 341.294 71.5714 344.045 66.8016C346.796 62.0318 348.217 56.6134 348.158 51.1101C348.1 45.6068 346.565 40.2196 343.714 35.5089Z" fill="#3F3D56"/>
<path d="M299.255 14.6357C299.063 14.636 298.873 14.6704 298.694 14.7374C298.43 14.8332 298.197 14.9975 298.017 15.2132C297.838 15.429 297.72 15.6885 297.674 15.965L295.543 28.4821C295.496 28.758 295.522 29.0414 295.62 29.3038C295.717 29.5662 295.882 29.7984 296.098 29.9769C296.314 30.1555 296.573 30.2742 296.85 30.3211C297.126 30.368 297.41 30.3414 297.673 30.2441L309.601 25.8281C309.864 25.7308 310.096 25.5661 310.275 25.3506C310.454 25.1352 310.573 24.8765 310.62 24.6006C310.667 24.3247 310.64 24.0414 310.543 23.779C310.445 23.5166 310.281 23.2845 310.065 23.1059L310.064 23.1056L300.269 15.0046C299.985 14.767 299.626 14.6364 299.255 14.6357Z" fill="#E6E6E6"/>
<path d="M336.408 14.6357C336.037 14.6364 335.679 14.767 335.394 15.0046L325.599 23.1059C325.383 23.2845 325.218 23.5166 325.12 23.779C325.023 24.0414 324.996 24.3247 325.043 24.6006C325.09 24.8765 325.209 25.1352 325.388 25.3506C325.567 25.5661 325.799 25.7308 326.062 25.8281L337.99 30.2441C338.253 30.3414 338.537 30.368 338.813 30.3211C339.09 30.2742 339.349 30.1555 339.565 29.9769C339.781 29.7984 339.946 29.5662 340.044 29.3038C340.141 29.0414 340.168 28.758 340.121 28.4821L337.989 15.965C337.943 15.6885 337.825 15.429 337.646 15.2132C337.467 14.9975 337.233 14.8332 336.969 14.7374C336.79 14.6704 336.6 14.636 336.408 14.6357Z" fill="#E6E6E6"/>
<path d="M317.293 60.0404C319.672 60.0404 321.6 58.116 321.6 55.742C321.6 53.3681 319.672 51.4436 317.293 51.4436C314.915 51.4436 312.986 53.3681 312.986 55.742C312.986 58.116 314.915 60.0404 317.293 60.0404Z" fill="#E6E6E6"/>
<path d="M317.293 54.6674C318.879 54.6674 320.165 54.1863 320.165 53.5928C320.165 52.9993 318.879 52.5182 317.293 52.5182C315.707 52.5182 314.422 52.9993 314.422 53.5928C314.422 54.1863 315.707 54.6674 317.293 54.6674Z" fill="#3F3D56"/>
<path d="M315.14 58.2494H319.088V63.0851C319.088 63.3438 319.037 63.6 318.938 63.8391C318.838 64.0781 318.693 64.2953 318.51 64.4782C318.326 64.6611 318.109 64.8063 317.869 64.9053C317.63 65.0043 317.373 65.0552 317.114 65.0552C316.59 65.0552 316.088 64.8477 315.718 64.4782C315.348 64.1087 315.14 63.6076 315.14 63.0851V58.2494H315.14Z" fill="#FF6584"/>
<path d="M317.533 9.49371C317.326 9.92218 317.125 10.3553 316.936 10.7972C314.708 15.9817 313.957 21.679 314.765 27.262C315.169 26.6769 315.594 26.0673 316.026 25.4509C315.101 20.0926 315.621 14.5851 317.533 9.49371Z" fill="#3F3D56"/>
<path d="M320.763 13.4339C320.556 13.8624 320.355 14.2955 320.166 14.7374C317.939 19.9219 317.187 25.6192 317.995 31.2022C318.399 30.6171 318.824 30.0075 319.256 29.3911C318.331 24.0328 318.851 18.5253 320.763 13.4339Z" fill="#3F3D56"/>
<path d="M330.722 90.7881L330.267 85.0125L329.812 79.2369C329.788 78.9251 329.681 78.6252 329.504 78.3674C329.326 78.1096 329.084 77.9029 328.801 77.7682C328.518 77.6336 328.205 77.5756 327.892 77.6001C327.58 77.6246 327.279 77.7308 327.021 77.9079L322.237 81.189L318.743 83.585C318.52 83.3241 318.242 83.1146 317.93 82.9709C317.618 82.8273 317.278 82.7529 316.934 82.7529C316.591 82.7529 316.251 82.8273 315.939 82.9709C315.626 83.1146 315.349 83.3241 315.126 83.585L311.632 81.189L306.848 77.9079C306.59 77.7308 306.289 77.6246 305.977 77.6001C305.664 77.5755 305.351 77.6335 305.068 77.7682C304.785 77.9029 304.543 78.1095 304.365 78.3673C304.188 78.6251 304.081 78.925 304.057 79.2369L303.601 85.0125L303.146 90.7881C303.122 91.0999 303.18 91.4127 303.315 91.695C303.45 91.9774 303.657 92.2193 303.915 92.3964C304.174 92.5736 304.474 92.6797 304.787 92.7043C305.099 92.7288 305.412 92.6708 305.695 92.5361L310.935 90.0416L315.24 87.992C315.461 88.216 315.725 88.3939 316.016 88.5153C316.307 88.6366 316.619 88.6992 316.934 88.6992C317.25 88.6992 317.562 88.6366 317.853 88.5153C318.144 88.3939 318.408 88.216 318.629 87.992L322.934 90.0416L328.173 92.5361C328.456 92.6708 328.77 92.7288 329.082 92.7043C329.395 92.6798 329.695 92.5736 329.953 92.3964C330.212 92.2193 330.419 91.9774 330.554 91.6951C330.689 91.4127 330.747 91.0999 330.722 90.7881Z" fill="#6C63FF"/>
<path d="M311.551 52.16C312.145 52.16 312.627 51.6789 312.627 51.0854C312.627 50.4919 312.145 50.0108 311.551 50.0108C310.956 50.0108 310.474 50.4919 310.474 51.0854C310.474 51.6789 310.956 52.16 311.551 52.16Z" fill="#E6E6E6"/>
<path d="M323.036 52.16C323.631 52.16 324.113 51.6789 324.113 51.0854C324.113 50.4919 323.631 50.0108 323.036 50.0108C322.441 50.0108 321.959 50.4919 321.959 51.0854C321.959 51.6789 322.441 52.16 323.036 52.16Z" fill="#E6E6E6"/>
<path d="M108.958 113.225C109.22 113.228 109.482 113.232 109.747 113.232C110.013 113.232 110.275 113.228 110.537 113.225C124.427 112.909 134.494 104.248 131.932 95.1606L125.683 72.9916L124.104 67.3821L96.1084 67.8585L94.4071 73.3462L87.7097 94.9457C84.8743 104.083 94.9419 112.909 108.958 113.225Z" fill="#3F3D56"/>
<path opacity="0.2" d="M94.4071 73.3462C99.1805 76.0693 104.596 77.4721 110.093 77.4098C115.591 77.3474 120.973 75.8222 125.683 72.9916L124.104 67.3821L96.1084 67.8585L94.4071 73.3462Z" fill="black"/>
<path d="M92.1884 93.2686C89.1667 89.7195 82.7921 85.552 69.3628 83.241C45.9412 79.2087 52.0357 65.0081 52.306 64.406C52.8733 63.143 52.2996 62.2968 51.0124 62.5233C50.288 62.704 49.6106 63.0371 49.0257 63.5004C48.4408 63.9637 47.9618 64.5464 47.621 65.2095C47.2749 65.9479 39.4562 83.3355 65.8846 87.8835C89.6703 91.9784 89.7551 101.948 89.7488 102.047C89.6855 103.147 90.7842 103.484 92.2053 102.801C93.6263 102.118 94.8309 100.673 94.8962 99.5727C94.9094 99.3402 95.002 96.5724 92.1884 93.2686Z" fill="#3F3D56"/>
<path d="M122.668 116.456C123.092 116.456 123.512 116.372 123.904 116.21C124.296 116.048 124.652 115.811 124.952 115.511C125.252 115.212 125.49 114.857 125.653 114.466C125.815 114.074 125.898 113.655 125.898 113.232V99.262C125.897 98.4077 125.557 97.5887 124.951 96.9849C124.345 96.3812 123.524 96.0421 122.668 96.0421C121.812 96.0421 120.991 96.3812 120.385 96.9849C119.78 97.5887 119.439 98.4077 119.438 99.262V113.232C119.438 113.655 119.522 114.074 119.684 114.466C119.846 114.857 120.084 115.212 120.384 115.511C120.684 115.811 121.04 116.048 121.432 116.21C121.824 116.372 122.244 116.456 122.668 116.456Z" fill="#3F3D56"/>
<path d="M119.836 83.2906C120.013 83.6752 120.265 84.0212 120.576 84.3088C120.887 84.5964 121.252 84.82 121.65 84.9669C122.048 85.1137 122.471 85.1809 122.895 85.1646C123.319 85.1483 123.735 85.0488 124.121 84.8718L136.837 79.0329C137.223 78.8562 137.57 78.6054 137.859 78.2947C138.147 77.9841 138.372 77.6197 138.519 77.2225C138.667 76.8252 138.734 76.4028 138.718 75.9795C138.702 75.5561 138.602 75.1402 138.425 74.7553C138.247 74.3704 137.995 74.0242 137.684 73.7365C137.372 73.4488 137.007 73.2252 136.609 73.0785C136.211 72.9317 135.787 72.8648 135.363 72.8814C134.939 72.8981 134.522 72.998 134.137 73.1755L121.42 79.0145C121.035 79.1914 120.688 79.4424 120.4 79.753C120.112 80.0637 119.888 80.428 119.741 80.825C119.594 81.2221 119.526 81.6442 119.543 82.0673C119.559 82.4903 119.659 82.906 119.836 83.2906Z" fill="#3F3D56"/>
<path d="M99.6584 83.2906C99.4811 83.6752 99.2297 84.0212 98.9184 84.3088C98.6071 84.5964 98.2421 84.82 97.8442 84.9669C97.4463 85.1137 97.0234 85.1809 96.5995 85.1646C96.1756 85.1483 95.7591 85.0488 95.3737 84.8718L82.6573 79.0329C82.2715 78.8562 81.9244 78.6054 81.6357 78.2947C81.3471 77.9841 81.1227 77.6197 80.9752 77.2225C80.8278 76.8252 80.7603 76.4028 80.7765 75.9795C80.7927 75.5561 80.8924 75.1402 81.0698 74.7553C81.2472 74.3704 81.4989 74.0242 81.8105 73.7365C82.1221 73.4488 82.4874 73.2252 82.8856 73.0785C83.2838 72.9317 83.7071 72.8648 84.1313 72.8814C84.5555 72.8981 84.9722 72.998 85.3576 73.1755L98.074 79.0145C98.4594 79.1914 98.8061 79.4424 99.0943 79.753C99.3825 80.0637 99.6065 80.428 99.7536 80.825C99.9008 81.2221 99.9681 81.6442 99.9517 82.0673C99.9354 82.4903 99.8357 82.906 99.6584 83.2906Z" fill="#3F3D56"/>
<path d="M96.8262 116.456C96.402 116.456 95.982 116.372 95.5901 116.21C95.1981 116.048 94.842 115.811 94.5421 115.511C94.2421 115.212 94.0042 114.857 93.8419 114.466C93.6795 114.074 93.596 113.655 93.596 113.232V99.262C93.597 98.4077 93.9378 97.5887 94.5435 96.9849C95.1491 96.3812 95.9702 96.0421 96.8262 96.0421C97.6823 96.0421 98.5033 96.3812 99.109 96.9849C99.7147 97.5887 100.055 98.4077 100.056 99.262V113.232C100.056 113.655 99.9729 114.074 99.8106 114.466C99.6483 114.857 99.4103 115.212 99.1104 115.511C98.8104 115.811 98.4543 116.048 98.0624 116.21C97.6705 116.372 97.2504 116.456 96.8262 116.456Z" fill="#3F3D56"/>
<path d="M135.591 25.114C135.778 24.5957 135.826 24.0382 135.732 23.4958L133.974 13.174L132.216 2.85226C132.121 2.29496 131.881 1.77241 131.519 1.33714C131.158 0.901872 130.688 0.569221 130.157 0.372612C129.626 0.176002 129.052 0.122364 128.494 0.217097C127.936 0.311831 127.412 0.551598 126.976 0.912291L118.898 7.59265L114.21 11.4695C110.949 10.9914 107.632 11.0413 104.386 11.6173L99.5195 7.59264L91.4418 0.912276C91.0057 0.551583 90.4821 0.311818 89.9236 0.217083C89.3652 0.122349 88.7917 0.175981 88.2606 0.37259C87.7295 0.5692 87.2597 0.901857 86.8983 1.33713C86.5368 1.7724 86.2966 2.29495 86.2017 2.85225L84.4436 13.174L82.6855 23.4958C82.6079 23.9371 82.625 24.3898 82.7355 24.8241C82.846 25.2584 83.0475 25.6643 83.3267 26.0152C80.4715 30.727 78.9338 36.1164 78.8736 41.6225C78.8133 47.1286 80.2328 52.5501 82.9843 57.323C85.7358 62.0959 89.7186 66.0456 94.5185 68.7611C99.3183 71.4767 104.76 72.8588 110.276 72.7637C115.793 72.6685 121.183 71.0996 125.886 68.2202C130.589 65.3408 134.433 61.2561 137.017 56.3912C139.602 51.5264 140.833 46.0591 140.582 40.5584C140.331 35.0577 138.608 29.7245 135.591 25.114H135.591Z" fill="#3F3D56"/>
<path d="M126.772 5.5109L116.976 13.6119L116.976 13.6122C116.76 13.7908 116.595 14.0229 116.497 14.2853C116.4 14.5476 116.373 14.831 116.42 15.1069C116.467 15.3828 116.586 15.6414 116.765 15.8569C116.944 16.0724 117.177 16.2371 117.44 16.3344L129.367 20.7503C129.63 20.8477 129.914 20.8742 130.191 20.8274C130.467 20.7805 130.726 20.6618 130.942 20.4832C131.158 20.3046 131.323 20.0725 131.421 19.8101C131.518 19.5477 131.545 19.2643 131.498 18.9884L129.366 6.47128C129.321 6.19474 129.202 5.93526 129.023 5.71951C128.844 5.50376 128.61 5.33951 128.346 5.24365C128.167 5.17671 127.977 5.1423 127.785 5.14203C127.415 5.14272 127.056 5.27326 126.772 5.5109Z" fill="#E6E6E6"/>
<path d="M90.0713 5.24365C89.8075 5.33951 89.5739 5.50375 89.3947 5.7195C89.2155 5.93526 89.0971 6.19474 89.0517 6.47128L86.9198 18.9884C86.8728 19.2643 86.8994 19.5477 86.9969 19.8101C87.0945 20.0725 87.2595 20.3046 87.4755 20.4832C87.6914 20.6618 87.9506 20.7805 88.2271 20.8274C88.5036 20.8742 88.7876 20.8477 89.0505 20.7503L100.978 16.3344C101.241 16.2371 101.474 16.0724 101.653 15.8569C101.831 15.6414 101.95 15.3828 101.997 15.1069C102.044 14.831 102.018 14.5476 101.92 14.2853C101.823 14.0229 101.658 13.7908 101.442 13.6122L91.6461 5.5109C91.3619 5.27326 91.0031 5.14272 90.6323 5.14203C90.4407 5.1423 90.2508 5.17671 90.0713 5.24365Z" fill="#E6E6E6"/>
<path d="M109.747 50.5467C112.126 50.5467 114.054 48.6223 114.054 46.2483C114.054 43.8744 112.126 41.9499 109.747 41.9499C107.369 41.9499 105.44 43.8744 105.44 46.2483C105.44 48.6223 107.369 50.5467 109.747 50.5467Z" fill="#E6E6E6"/>
<path d="M109.747 45.1737C111.333 45.1737 112.619 44.6926 112.619 44.0991C112.619 43.5057 111.333 43.0245 109.747 43.0245C108.161 43.0245 106.876 43.5057 106.876 44.0991C106.876 44.6926 108.161 45.1737 109.747 45.1737Z" fill="#3F3D56"/>
<path d="M109.927 55.5616C109.667 55.5616 109.411 55.5106 109.171 55.4116C108.932 55.3126 108.714 55.1675 108.531 54.9845C108.347 54.8016 108.202 54.5844 108.103 54.3454C108.004 54.1063 107.953 53.8502 107.953 53.5914V48.7557H111.901V53.5914C111.901 53.8502 111.85 54.1063 111.75 54.3454C111.651 54.5844 111.506 54.8016 111.323 54.9845C111.139 55.1675 110.922 55.3126 110.682 55.4116C110.443 55.5106 110.186 55.5616 109.927 55.5616Z" fill="#FF6584"/>
<path d="M109.508 0C109.715 0.428466 109.916 0.861566 110.105 1.30352C112.332 6.48799 113.083 12.1852 112.276 17.7683C111.871 17.1832 111.447 16.5735 111.015 15.9572C111.94 10.5989 111.42 5.09139 109.508 0Z" fill="#3F3D56"/>
<path d="M106.277 3.94019C106.484 4.36866 106.685 4.80175 106.874 5.24371C109.102 10.4282 109.853 16.1254 109.045 21.7085C108.641 21.1234 108.216 20.5137 107.785 19.8974C108.71 14.5391 108.189 9.03158 106.277 3.94019Z" fill="#3F3D56"/>
<path d="M96.3182 18.6093L96.7733 12.8337L97.2283 7.05809C97.2529 6.74625 97.3593 6.44635 97.5368 6.18854C97.7143 5.93074 97.9567 5.7241 98.2396 5.58942C98.5225 5.45473 98.8359 5.39673 99.1484 5.42126C99.4608 5.44578 99.7613 5.55196 100.02 5.72912L104.804 9.01022L108.298 11.4062C108.521 11.1453 108.798 10.9358 109.11 10.7921C109.423 10.6485 109.762 10.5741 110.106 10.5741C110.45 10.5741 110.79 10.6485 111.102 10.7921C111.414 10.9358 111.691 11.1453 111.915 11.4062L115.408 9.01022L120.193 5.72912C120.451 5.55196 120.751 5.44578 121.064 5.42126C121.376 5.39673 121.69 5.45473 121.973 5.58942C122.256 5.7241 122.498 5.93074 122.675 6.18854C122.853 6.44635 122.959 6.74625 122.984 7.05809L123.439 12.8337L123.894 18.6093C123.919 18.9211 123.861 19.2339 123.726 19.5162C123.591 19.7986 123.384 20.0405 123.125 20.2176C122.867 20.3948 122.566 20.5009 122.254 20.5255C121.942 20.55 121.628 20.492 121.345 20.3573L116.106 17.8628L111.801 15.8132C111.579 16.0372 111.316 16.2151 111.025 16.3364C110.734 16.4578 110.421 16.5204 110.106 16.5204C109.791 16.5204 109.479 16.4578 109.188 16.3364C108.897 16.2151 108.633 16.0372 108.411 15.8132L104.106 17.8628L98.8671 20.3573C98.5842 20.492 98.2708 20.55 97.9583 20.5255C97.6458 20.501 97.3453 20.3948 97.087 20.2176C96.8287 20.0405 96.6217 19.7986 96.4867 19.5162C96.3517 19.2339 96.2936 18.9211 96.3182 18.6093Z" fill="#6C63FF"/>
<path d="M114.413 41.5917C114.413 42.1852 114.895 41.5917 115.49 41.5917C116.085 41.5917 116.567 42.1852 116.567 41.5917C116.566 41.3071 116.452 41.0343 116.25 40.8333C116.049 40.6322 115.775 40.5193 115.49 40.5193C115.205 40.5193 114.931 40.6322 114.729 40.8333C114.527 41.0343 114.414 41.3071 114.413 41.5917Z" fill="#E6E6E6"/>
<path d="M105.081 41.5917C105.081 42.1852 104.599 41.5917 104.005 41.5917C103.41 41.5917 102.928 42.1852 102.928 41.5917C102.928 41.3071 103.042 41.0343 103.244 40.8333C103.446 40.6322 103.719 40.5193 104.005 40.5193C104.29 40.5193 104.563 40.6322 104.765 40.8333C104.967 41.0343 105.081 41.3071 105.081 41.5917Z" fill="#E6E6E6"/>
<path d="M224.543 122.728V115.897H190.322V116.324V122.728V177.799V184.63H197.166H224.543V177.799H197.166V122.728H224.543Z" fill="#3F3D56"/>
<path d="M241.226 115.897V184.63H275.447V115.897H241.226ZM268.603 177.799H248.07V122.728H268.603V177.799Z" fill="#6C63FF"/>
<path d="M146.262 177.799V116.324H139.417V177.799V184.63H146.262H173.639V177.799H146.262Z" fill="#6C63FF"/>
<path d="M124.018 122.728V115.897H89.7967V116.324V122.728V146.635V153.465V177.799V184.63H96.6411H124.018V177.799H96.6411V153.465H124.018V146.635H96.6411V122.728H124.018Z" fill="#3F3D56"/>
<path d="M391.8 122.728V115.897H357.578V116.324V122.728V146.635V153.465V177.799V184.63H364.423H391.8V177.799H364.423V153.465H391.8V146.635H364.423V122.728H391.8Z" fill="#6C63FF"/>
<path d="M66.6973 116.324V172.778L48.6513 154.768L48.6102 154.809L48.5719 154.771L30.1235 173.183V116.111H23.2791V184.417H30.1235V182.843L48.6135 164.39L66.6973 182.438V184.63H73.5417V116.324H66.6973Z" fill="#3F3D56"/>
<path d="M334.907 116.324V117.898L316.417 136.351L298.333 118.303V116.111H291.488V184.417H298.333V127.963L316.379 145.973L316.42 145.931L316.458 145.969L334.907 127.557V184.63H341.751V116.324H334.907Z" fill="#3F3D56"/>
</svg>
